<svg xmlns="http://www.w3.org/2000/svg" width="190" height="190" viewBox="0 0 190 190"><g fill="none" fill-rule="evenodd"><path stroke="#191919" stroke-linecap="round" stroke-linejoin="round" stroke-width="3.859" d="M28.507 157.392c-8.135.1-11.446 5.199-12.349 12.789"/><path stroke="#191919" stroke-linecap="round" stroke-linejoin="round" stroke-width="3.924" d="M77.973 85.37s31.32-68.54-20.362-73.524C5.93 6.863 68.774 88.706 70.062 89.02"/><path fill="#83254F" fill-rule="nonzero" d="M111.735 170.618a135.37 135.37 0 0 1-43.048 5.684c-12.247-.341-24.24-3.989-34.768-10.574-9.953-6.455-17.14-16.573-20.051-28.23-3.71-12.778-3.15-24.212 1.76-34.795 5.435-11.073 13.657-20.427 23.83-27.111A135.37 135.37 0 0 1 78.86 57.346c15.144-4.395 29.444-6.198 42.838-5.623 12.274.22 24.322 3.772 34.915 10.296 9.877 6.539 17.038 16.622 20.052 28.23 3.67 11.418 3.018 23.768-1.823 34.579-5.5 11.187-13.735 20.693-23.915 27.605a133.028 133.028 0 0 1-39.192 18.185Z"/><ellipse cx="32.801" cy="123.468" fill="#191919" stroke="#191919" stroke-linecap="round" stroke-linejoin="round" stroke-width="3.859" rx="5.83" ry="6.037"/><ellipse cx="66.447" cy="129.505" fill="#191919" stroke="#191919" stroke-linecap="round" stroke-linejoin="round" stroke-width="3.859" rx="5.83" ry="6.037"/><path stroke="#191919" stroke-linecap="round" stroke-linejoin="round" stroke-width="3.861" d="M101.286 83.46s15.297-74.658 59.276-47.652c43.98 27.005-53.924 55.9-55.131 55.38"/><path stroke="#191919" stroke-linecap="round" stroke-linejoin="round" stroke-width="3.859" d="M95.114 170.643c8.135.1 11.446 5.199 12.349 12.789M124.253 157.854c8.135.1 11.446 5.199 12.349 12.789"/><path stroke="#191919" stroke-linecap="round" stroke-linejoin="round" stroke-width="3.893" d="M146.017 148.18c7.926-1.916 12.398 2.196 15.143 9.312"/><path stroke="#191919" stroke-linecap="round" stroke-linejoin="round" stroke-width="3.85" d="M39.138 138.96c0 .25 2.813 3.467 6.731.472.117-.022 2.925 3.314 6.687.665"/></g></svg>
