<svg xmlns="http://www.w3.org/2000/svg" xmlns:xlink="http://www.w3.org/1999/xlink" width="256" height="256"><defs><circle id="a" cx="118" cy="118" r="118"/><path id="c" d="M25 0c33.55 12.2 70.296 43.003 101.153 76.675C142.668 70.9 165.45 75.677 194.5 91c-15.992 8.141-28.053 16.41-36.182 24.805 16.95 25.025 12.01 38.756-14.818 41.195-66.333 47.667-106.667 49.833-121 6.5C1 98.5-14.5 33 25 0Zm-6 43.5C9.5 49.5 4 72 9.5 92c6-24 17.5-24 57 12.5C51 72 37 54 19 43.5Z"/></defs><g fill="none" fill-rule="evenodd"><g transform="translate(10 10)"><mask id="b" fill="#fff"><use xlink:href="#a"/></mask><use xlink:href="#a" fill="#000" fill-opacity=".138"/><g mask="url(#b)"><path fill="#FAADAD" d="m65 119 4.5-17.5h25L139 178l-54.5-16-17.5-7.5-2-7.5-2.5-22.5z"/><path fill="#FFF" d="M67.5 149.5c-1-2.333-1-4.333 0-6 1-1.667 2.333-1.5 4 .5-.333-3.667.5-6 2.5-7s3 0 3 3c-.333-5.333 1.167-7.667 4.5-7 3.333.667 4.5 3 3.5 7 2-3.333 4.333-4.333 7-3 2.667 1.333 3.167 3.667 1.5 7 1.333-3.333 3.167-4.333 5.5-3 2.333 1.333 3 3.833 2 7.5 3-1.333 5.167-1.333 6.5 0 1.333 1.333 2.167 3.167 2.5 5.5l-42.5-4.5Z"/><path fill="#FFF" d="m113.5 125-29-29.5-22 13.5 2.5 24.5c.333 1.333.833.667 1.5-2a16.25 16.25 0 0 0 0-8c.333 3.333 1 3.333 2 0S70 116.667 70 113c-1 5.333.333 7 4 5s5.333-5.833 5-11.5c-1 7.667 0 12.167 3 13.5 3 1.333 5.167-1 6.5-7-1.333 5.333 0 9.333 4 12s6 2.167 6-1.5c-1 3.333-.5 6.333 1.5 9s4.5 3.667 7.5 3c-.667 2.667-.167 5.833 1.5 9.5s4 5 7 4c-1.333 1.333-1.333 3.333 0 6s3 4 5 4l-7.5-34Z"/><g transform="translate(57.5 61)"><mask id="d" fill="#fff"><use xlink:href="#c"/></mask><use xlink:href="#c" fill="#88939F"/><g fill="#010101" mask="url(#d)" opacity=".199"><path d="M91 100.5c9.5-1 19-8 21.5-16s.5 7.5-6 12.5-25 4.5-15.5 3.5ZM99 111.5c9.5-1 19-8 21.5-16s.5 7.5-6 12.5-25 4.5-15.5 3.5ZM106 123.5c9.5-1 19-8 21.5-16s.5 7.5-6 12.5-25 4.5-15.5 3.5Z"/></g><path fill="#CECECE" d="M16.5 29c27 11.5 94 97 107.5 128.5 9 21-26.833 26.167-107.5 15.5-24.667-61.667-24.667-109.667 0-144Z" mask="url(#d)"/><g mask="url(#d)"><g transform="translate(64.5 50)"><ellipse cx="14" cy="14" fill="#010101" rx="11" ry="8" transform="rotate(41 14 14)"/><circle cx="18.5" cy="18" r="2" fill="#D8D8D8"/></g></g><path fill="#FFF" fill-opacity=".453" d="M12 153.5c-5.5-50-2.73-127.59 22.5-136 27-9 60.5 26.5 70 34.5 14.42 12.143 31-8 40-13.5s20.5 18 32 18c7.667 0-25-33.167-98-99.5L-42 22c39.667 121 57.667 164.833 54 131.5Z" mask="url(#d)"/></g></g></g><g fill="#010101" fill-rule="nonzero" stroke="#FFF" opacity=".267"><path d="m157.074 66.23.083-1.191c.034-.489.101-.906.2-1.252.1-.345.252-.672.454-.98.203-.308.473-.604.81-.887.336-.283.76-.607 1.268-.97a35.078 35.078 0 0 0 2.218-1.617 10.378 10.378 0 0 0 1.704-1.698 8.02 8.02 0 0 0 1.161-2.036c.294-.746.476-1.623.547-2.631.11-1.588-.094-2.983-.613-4.185-.52-1.202-1.25-2.212-2.189-3.029-.939-.817-2.035-1.446-3.287-1.887a14.84 14.84 0 0 0-3.906-.802c-1.442-.1-2.824.01-4.144.332-1.32.321-2.52.859-3.6 1.612-1.079.753-1.985 1.732-2.719 2.939-.733 1.207-1.248 2.628-1.543 4.264l7.11 1.28a5.445 5.445 0 0 1 1.244-2.882c.691-.826 1.668-1.195 2.93-1.107 1.021.072 1.805.418 2.35 1.04.545.62.784 1.42.715 2.396-.049.702-.271 1.293-.667 1.771a8.932 8.932 0 0 1-1.408 1.352l-1.586 1.315c-.637.477-1.19.945-1.66 1.403-.47.458-.873.936-1.21 1.434a6.393 6.393 0 0 0-.796 1.67c-.194.615-.319 1.32-.374 2.114l-.122 1.74 7.03.492Zm-3.738 10.765c1.258.088 2.348-.273 3.268-1.084.92-.81 1.425-1.85 1.514-3.116a4.487 4.487 0 0 0-.225-1.758 4.152 4.152 0 0 0-.867-1.493 4.953 4.953 0 0 0-1.36-1.05 4.232 4.232 0 0 0-1.702-.477 4.394 4.394 0 0 0-1.775.234c-.569.199-1.075.49-1.518.872-.443.383-.8.843-1.068 1.382a4.487 4.487 0 0 0-.467 1.71 4.195 4.195 0 0 0 .246 1.783 4.81 4.81 0 0 0 .89 1.494c.385.44.839.79 1.36 1.05.522.26 1.09.41 1.704.453ZM44.68 152.31l-.523-1.073a6.117 6.117 0 0 1-.452-1.184 3.578 3.578 0 0 1-.097-1.077c.021-.368.107-.758.257-1.172.15-.414.354-.905.613-1.474.435-.893.807-1.73 1.113-2.51.307-.779.516-1.553.626-2.322a8.02 8.02 0 0 0-.012-2.344c-.119-.793-.4-1.644-.842-2.552-.698-1.43-1.572-2.536-2.624-3.317-1.05-.781-2.187-1.291-3.41-1.53-1.221-.238-2.485-.234-3.79.01a14.84 14.84 0 0 0-3.783 1.259c-1.3.633-2.44 1.42-3.424 2.359a10.628 10.628 0 0 0-2.31 3.196c-.559 1.191-.854 2.493-.886 3.905-.032 1.411.233 2.9.795 4.464l6.798-2.447a5.445 5.445 0 0 1-.364-3.117c.186-1.061.848-1.87 1.985-2.424.92-.449 1.771-.54 2.554-.275.783.265 1.389.838 1.818 1.718.309.633.411 1.255.308 1.867a8.932 8.932 0 0 1-.544 1.875l-.716 1.932a16.819 16.819 0 0 0-.736 2.045 9.223 9.223 0 0 0-.33 1.847c-.043.6.005 1.214.145 1.844.14.63.384 1.303.733 2.018l.764 1.568 6.334-3.09Zm2.146 11.192c1.134-.553 1.896-1.41 2.288-2.573.392-1.163.31-2.314-.247-3.456a4.487 4.487 0 0 0-1.074-1.41 4.152 4.152 0 0 0-1.497-.86 4.953 4.953 0 0 0-1.703-.228 4.232 4.232 0 0 0-1.713.438 4.394 4.394 0 0 0-1.42 1.09 4.643 4.643 0 0 0-.878 1.514 4.408 4.408 0 0 0-.235 1.73c.037.6.187 1.172.451 1.714.279.571.647 1.045 1.105 1.422.457.377.963.66 1.518.85a4.385 4.385 0 0 0 1.703.228 4.492 4.492 0 0 0 1.702-.46ZM205.427 123.212l.378-1.316a7.08 7.08 0 0 1 .522-1.356c.194-.365.44-.696.739-.994a4.77 4.77 0 0 1 1.112-.804c.442-.238.99-.502 1.641-.79 1.05-.429 2-.86 2.854-1.29.853-.431 1.62-.932 2.3-1.504a9.238 9.238 0 0 0 1.778-2.01c.505-.769.917-1.71 1.237-2.823.503-1.755.61-3.368.32-4.839-.291-1.471-.86-2.776-1.709-3.914-.849-1.138-1.916-2.101-3.203-2.89a16.716 16.716 0 0 0-4.151-1.82 15.146 15.146 0 0 0-4.686-.605c-1.546.05-3.008.37-4.388.96-1.38.591-2.622 1.477-3.726 2.658-1.104 1.18-2.016 2.654-2.736 4.42l7.6 3.11a6.283 6.283 0 0 1 2.07-2.94c.967-.763 2.142-.947 3.523-.551 1.119.32 1.907.894 2.365 1.719.457.825.531 1.777.222 2.857-.223.776-.611 1.386-1.166 1.83-.554.444-1.184.838-1.888 1.184l-2.079 1.102c-.822.385-1.55.78-2.181 1.183-.632.403-1.194.844-1.688 1.323a7.374 7.374 0 0 0-1.284 1.686c-.363.645-.67 1.406-.922 2.283l-.552 1.924 7.698 2.207Zm-6.73 11.196c1.377.396 2.675.247 3.892-.446 1.217-.693 2.027-1.74 2.428-3.14a5.19 5.19 0 0 0 .172-2.024 4.764 4.764 0 0 0-.608-1.879 5.625 5.625 0 0 0-1.261-1.498 4.77 4.77 0 0 0-1.778-.936 4.953 4.953 0 0 0-2.029-.156c-.68.09-1.312.296-1.896.621a5.06 5.06 0 0 0-1.518 1.298 5.19 5.19 0 0 0-.928 1.808 4.85 4.85 0 0 0-.154 2.059c.098.672.31 1.3.632 1.886a4.98 4.98 0 0 0 3.047 2.407ZM52.419 85.084l-.039-.736a3.67 3.67 0 0 1 .031-.782 2.17 2.17 0 0 1 .212-.636c.104-.204.252-.406.443-.606.19-.199.433-.43.726-.69.478-.404.904-.791 1.278-1.16.374-.37.69-.761.946-1.172.257-.41.45-.856.578-1.336.128-.48.176-1.032.144-1.655-.052-.981-.288-1.82-.708-2.518a5.19 5.19 0 0 0-1.614-1.69 6.449 6.449 0 0 0-2.221-.906 9.712 9.712 0 0 0-2.53-.194 8.795 8.795 0 0 0-2.592.52 6.832 6.832 0 0 0-2.15 1.262 5.974 5.974 0 0 0-1.492 2.009c-.371.795-.588 1.706-.649 2.731l4.59.243a3.3 3.3 0 0 1 .564-1.861c.374-.56.963-.86 1.767-.902.65-.034 1.172.118 1.564.457.392.34.604.81.635 1.415.023.434-.072.813-.286 1.137a5.579 5.579 0 0 1-.785.935l-.902.928c-.366.34-.68.67-.941.986-.262.317-.48.64-.655.971-.174.331-.3.693-.374 1.085a5.51 5.51 0 0 0-.075 1.324l.056 1.076 4.479-.235Zm-1.537 6.884c.802-.042 1.462-.346 1.981-.914.52-.567.759-1.242.718-2.025a2.701 2.701 0 0 0-.276-1.06 2.562 2.562 0 0 0-.663-.85 3.16 3.16 0 0 0-.94-.54 2.763 2.763 0 0 0-1.111-.162 2.962 2.962 0 0 0-1.995.93c-.251.268-.44.577-.57.927-.128.35-.183.712-.163 1.084.02.392.118.75.291 1.074.174.325.4.608.677.848.278.241.59.421.94.54.35.12.72.169 1.11.148ZM70.521 195.795l.54-.502a3.67 3.67 0 0 1 .619-.48c.191-.113.399-.195.623-.246.223-.052.473-.068.748-.05.276.018.608.056.997.113.616.106 1.186.184 1.71.233a6.47 6.47 0 0 0 1.505-.028c.48-.068.945-.207 1.395-.417.45-.21.904-.528 1.36-.953.719-.67 1.21-1.39 1.474-2.161a5.19 5.19 0 0 0 .257-2.323 6.449 6.449 0 0 0-.734-2.284 9.712 9.712 0 0 0-1.477-2.062 8.795 8.795 0 0 0-2.064-1.652 6.832 6.832 0 0 0-2.35-.835 5.974 5.974 0 0 0-2.498.148c-.847.227-1.684.647-2.509 1.259l2.765 3.671a3.3 3.3 0 0 1 1.789-.763c.668-.074 1.277.184 1.826.773.444.476.662.974.655 1.492-.008.518-.233.984-.676 1.396-.318.297-.67.467-1.054.512a5.579 5.579 0 0 1-1.222 0l-1.29-.095c-.496-.061-.95-.09-1.36-.087-.411.003-.8.044-1.165.123a3.881 3.881 0 0 0-1.072.41 5.51 5.51 0 0 0-1.062.794l-.788.735 3.058 3.28Zm-6.261 3.248c.547.587 1.205.897 1.974.93.768.034 1.439-.217 2.012-.752.273-.254.484-.552.635-.893.151-.342.226-.692.225-1.053a3.16 3.16 0 0 0-.19-1.067 2.763 2.763 0 0 0-.59-.956 2.962 2.962 0 0 0-1.994-.931 2.719 2.719 0 0 0-1.078.16 2.701 2.701 0 0 0-.935.572 2.526 2.526 0 0 0-.636.914 2.97 2.97 0 0 0-.214 1.063c-.007.367.057.723.19 1.067.134.344.334.66.6.946Z"/></g></g></svg>